<?xml version="1.0" standalone="no"?>
<!DOCTYPE svg PUBLIC "-//W3C//DTD SVG 20010904//EN"
 "http://www.w3.org/TR/2001/REC-SVG-20010904/DTD/svg10.dtd">
<svg version="1.0" xmlns="http://www.w3.org/2000/svg"
 width="700.000000pt" height="700.000000pt" viewBox="0 0 700.000000 700.000000"
 preserveAspectRatio="xMidYMid meet">
<metadata>
Created by potrace 1.14, written by Peter Selinger 2001-2017
</metadata>
<g transform="translate(0.000000,700.000000) scale(0.100000,-0.100000)"
fill="#000000" stroke="none">
<path d="M460 5659 c-74 -3 -136 -7 -137 -8 -2 0 -3 -1022 -3 -2271 l0 -2270
455 0 455 0 0 1817 0 1816 128 -6 c237 -11 405 -73 537 -199 108 -102 181
-241 229 -433 54 -219 69 -381 91 -1020 18 -488 27 -633 55 -825 88 -604 326
-992 706 -1150 233 -97 541 -124 814 -70 598 116 906 598 974 1525 4 44 15
314 26 600 20 523 27 621 56 795 87 520 327 754 797 777 l127 6 0 -1816 0
-1817 455 0 455 0 0 2269 0 2270 -47 7 c-27 5 -248 8 -493 9 -482 0 -587 -7
-865 -61 -686 -134 -1060 -503 -1245 -1228 -103 -404 -143 -794 -179 -1766
-22 -558 -20 -551 -125 -656 -70 -69 -134 -97 -226 -97 -92 0 -156 28 -226 97
-104 105 -103 95 -124 676 -11 272 -24 574 -30 670 -106 1709 -536 2264 -1830
2360 -148 11 -617 11 -830 -1z"/>
</g>
</svg>
