<?xml version="1.0" standalone="no"?>
<!DOCTYPE svg PUBLIC "-//W3C//DTD SVG 20010904//EN"
 "http://www.w3.org/TR/2001/REC-SVG-20010904/DTD/svg10.dtd">
<svg version="1.0" xmlns="http://www.w3.org/2000/svg"
 width="700.000000pt" height="700.000000pt" viewBox="0 0 700.000000 700.000000"
 preserveAspectRatio="xMidYMid meet">
<metadata>
Created by potrace 1.14, written by Peter Selinger 2001-2017
</metadata>
<g transform="translate(0.000000,700.000000) scale(0.100000,-0.100000)"
fill="#000000" stroke="none">
<path d="M3380 6671 c-168 -36 -295 -105 -416 -226 -78 -77 -125 -153 -159
-254 -12 -36 -28 -66 -35 -66 -7 0 -20 25 -30 56 -37 120 -113 222 -222 299
-328 230 -823 166 -1073 -140 -52 -63 -105 -161 -130 -237 -10 -29 -23 -53
-30 -53 -13 0 -20 69 -31 338 l-7 152 -66 0 c-111 -1 -812 -38 -818 -44 -8 -7
117 -2566 125 -2586 6 -14 55 -13 466 7 252 12 461 25 464 27 2 3 -12 342 -33
753 -20 411 -35 786 -33 833 5 99 27 157 84 219 55 62 104 84 200 89 102 5
165 -14 228 -69 54 -47 91 -121 105 -210 6 -35 27 -401 47 -814 19 -412 37
-755 39 -762 3 -8 32 -10 102 -6 54 3 252 12 440 22 188 9 344 19 347 22 3 3
-12 356 -33 785 -24 485 -36 800 -31 835 16 117 85 215 177 254 59 25 160 30
225 11 73 -21 148 -87 183 -162 36 -77 40 -124 81 -959 19 -401 37 -731 39
-734 6 -6 919 41 927 48 6 6 -74 1682 -87 1823 -10 113 -44 229 -97 338 -45
93 -61 115 -147 200 -104 104 -191 157 -326 200 -100 32 -352 38 -475 11z"/>
<path d="M5065 6502 c-242 -91 -442 -167 -444 -168 -5 -4 908 -2186 920 -2198
10 -12 719 253 719 268 0 12 -747 2257 -752 2261 -2 1 -201 -73 -443 -163z"/>
<path d="M6071 4099 c-253 -31 -446 -289 -402 -538 58 -326 389 -492 688 -346
145 71 253 253 253 424 -1 211 -124 377 -327 439 -85 26 -130 30 -212 21z"/>
<path d="M3995 3677 c-20 -51 -320 -795 -666 -1655 -346 -860 -631 -1568 -632
-1574 -2 -10 852 -360 863 -353 3 2 123 294 265 649 143 355 263 646 268 646
4 0 7 -16 7 -35 0 -118 65 -294 153 -412 84 -114 248 -224 412 -278 203 -67
450 -59 645 22 172 71 358 221 488 393 206 272 380 731 407 1070 8 105 -8 260
-41 388 -77 306 -312 551 -630 658 -107 35 -286 44 -397 20 -125 -28 -260
-101 -359 -195 -21 -19 -41 -31 -45 -27 -4 3 30 99 76 212 48 117 80 209 75
214 -5 5 -199 85 -431 178 l-422 170 -36 -91z m1027 -1049 c246 -113 283 -420
98 -803 -90 -186 -215 -315 -337 -351 -172 -50 -368 46 -435 214 -19 49 -22
74 -22 187 1 160 24 249 115 432 88 180 203 297 332 339 65 21 181 13 249 -18z"/>
<path d="M2573 3636 c-254 -44 -464 -84 -468 -87 -3 -4 -33 -402 -66 -885 -33
-483 -62 -880 -64 -883 -2 -2 -10 -1 -17 2 -7 3 -170 368 -363 811 -275 635
-354 806 -368 806 -17 0 -951 -160 -953 -163 -1 -1 291 -545 650 -1209 528
-979 655 -1207 671 -1207 29 -1 1046 176 1052 183 3 3 97 598 209 1323 112
725 206 1335 210 1356 5 32 3 37 -13 36 -10 -1 -226 -38 -480 -83z"/>
</g>
</svg>
