<?xml version="1.0" standalone="no"?>
<!DOCTYPE svg PUBLIC "-//W3C//DTD SVG 20010904//EN"
 "http://www.w3.org/TR/2001/REC-SVG-20010904/DTD/svg10.dtd">
<svg version="1.0" xmlns="http://www.w3.org/2000/svg"
 width="700.000000pt" height="700.000000pt" viewBox="0 0 700.000000 700.000000"
 preserveAspectRatio="xMidYMid meet">
<metadata>
Created by potrace 1.14, written by Peter Selinger 2001-2017
</metadata>
<g transform="translate(0.000000,700.000000) scale(0.100000,-0.100000)"
fill="#000000" stroke="none">
<path d="M0 3500 l0 -3500 3500 0 3500 0 0 3500 0 3500 -3500 0 -3500 0 0
-3500z m1710 1750 l0 -1230 205 0 205 0 0 1230 0 1230 615 0 615 0 0 -1435 0
-1435 -205 0 -205 0 0 1230 0 1230 -205 0 -205 0 0 -1230 0 -1230 -615 0 -615
0 0 1230 0 1230 -205 0 -205 0 0 -1230 0 -1230 -205 0 -205 0 0 1435 0 1435
615 0 615 0 0 -1230z m3170 410 l0 -820 205 0 205 0 0 820 0 820 620 0 620 0
0 -1435 0 -1435 -1440 0 -1440 0 0 1435 0 1435 615 0 615 0 0 -820z m-1532
-2937 l2 -613 -820 0 -820 0 -2 -822 -3 -823 -202 -3 -203 -2 0 1030 0 1030
820 0 820 0 -2 203 -3 202 -1022 3 -1023 2 -2 -1232 -3 -1233 -202 -3 -203 -2
0 1440 0 1440 1433 -2 1432 -3 3 -612z m1942 2 l0 -205 -205 0 -205 0 0 198
c0 109 3 202 7 205 3 4 96 7 205 7 l198 0 0 -205z m-1945 -1645 l0 -615 -202
-3 -203 -2 -2 412 -3 413 -202 3 -203 2 -2 -412 -3 -413 -202 -3 -203 -2 0
620 0 620 613 -2 612 -3 0 -615z"/>
<path d="M4060 5045 l0 -1025 1025 0 1025 0 0 1025 0 1025 -205 0 -205 0 0
-820 0 -820 -615 0 -615 0 0 820 0 820 -205 0 -205 0 0 -1025z"/>
</g>
</svg>
