<?xml version="1.0" standalone="no"?>
<!DOCTYPE svg PUBLIC "-//W3C//DTD SVG 20010904//EN"
 "http://www.w3.org/TR/2001/REC-SVG-20010904/DTD/svg10.dtd">
<svg version="1.0" xmlns="http://www.w3.org/2000/svg"
 width="700.000000pt" height="700.000000pt" viewBox="0 0 700.000000 700.000000"
 preserveAspectRatio="xMidYMid meet">
<metadata>
Created by potrace 1.14, written by Peter Selinger 2001-2017
</metadata>
<g transform="translate(0.000000,700.000000) scale(0.100000,-0.100000)"
fill="#000000" stroke="none">
<path d="M837 6642 c-15 -3 -16 -43 -16 -448 l0 -444 393 0 393 0 1 445 c0
245 -3 445 -7 446 -20 2 -750 3 -764 1z"/>
<path d="M2362 6636 c-4 -7 -7 -6244 -3 -6302 1 -9 106 -12 394 -13 l392 0 -1
3155 c0 1735 -4 3157 -7 3161 -11 10 -768 9 -775 -1z"/>
<path d="M3914 6642 l-21 -3 0 -3159 0 -3158 393 0 392 0 0 3159 c0 1737 -3
3159 -6 3160 -21 2 -740 4 -758 1z"/>
<path d="M5440 6642 c-6 -2 -10 -161 -10 -448 l0 -444 392 2 392 3 1 438 c0
254 -4 441 -9 445 -10 5 -749 9 -766 4z"/>
<path d="M853 4892 l-32 -3 0 -2284 0 -2283 394 0 394 0 -2 2285 -2 2285 -360
2 c-198 0 -375 0 -392 -2z"/>
<path d="M5473 4892 l-43 -3 0 -2284 0 -2283 392 1 393 2 0 2282 c0 2276 0
2283 -20 2283 -123 3 -690 4 -722 2z"/>
</g>
</svg>
